<svg id="Layer_1" data-name="Layer 1" xmlns="http://www.w3.org/2000/svg" viewBox="0 0 238 229"><defs><style>.cls-1{fill:#fff;}</style></defs><title>logo_svg</title><path class="cls-1" d="M109.76,219.78a9.11,9.11,0,0,1-1.47-.12,10.94,10.94,0,0,1-7.37-5.08l-42.56-50a4.52,4.52,0,0,1,6.88-5.85L108,209a3.12,3.12,0,0,1,.54.78c.24.38.74.9,1.08.94s1.47-.31,3.14-2c.6-.6,1.54-1.51,2.77-2.7,28.9-28.07,66.08-68.33,83.71-104.64H176.84a4.51,4.51,0,0,1-4.23-2.94l-6.28-17-7.45,36.7a4.51,4.51,0,0,1-8.48,1.06l-9.06-18.81-11.09-.63a4.51,4.51,0,0,1-3.75-2.44l-6.14-11.87L116.71,96a4.52,4.52,0,0,1-4.26,3h-8.31l-8.69,22.11A4.51,4.51,0,0,1,87,121L79.68,99.22l-7.61-.57a4.49,4.49,0,0,1-3.91-3l-5-13.76L56.45,96.09a4.52,4.52,0,0,1-4.07,2.58H22.14a4.52,4.52,0,0,1-4.26-3,98.87,98.87,0,0,1-4.31-21.17c-1.53-16.13,1.19-30.32,7.87-41C30.06,19.6,45,11.31,65.8,8.79s34.83,5.32,42.87,12.35a55.44,55.44,0,0,1,8.1,8.82,46.32,46.32,0,0,1,7.17-8.7c7.51-7.1,21.22-15.14,43.92-13.07,28.63,2.62,41.32,19.92,46.92,34A76.77,76.77,0,0,1,220,71.74a4.52,4.52,0,0,1-9-.5,68.39,68.39,0,0,0-4.67-26c-6.82-16.86-20-26.3-39.25-28.06-36.37-3.32-45.23,22.3-45.58,23.39A4.52,4.52,0,0,1,113,41c-.5-1.11-12.86-27.31-46.15-23.28-18,2.18-30.69,9.06-37.79,20.46-11.27,18.07-6,42.89-3.6,51.43h24L59.69,68.26a4.51,4.51,0,0,1,8.32.41l7.64,21.2,7.68.57a4.51,4.51,0,0,1,4,3.06l4.3,12.83,5.28-13.44a4.53,4.53,0,0,1,4.2-2.86h8.18l6.05-17.38a4.51,4.51,0,0,1,8.27-.59L133.34,91l11.17.64a4.5,4.5,0,0,1,3.81,2.55l4.39,9.11,7.93-39.07a4.51,4.51,0,0,1,8.65-.67L180,92.39h26.31a4.51,4.51,0,0,1,4.15,6.28c-13.44,31.52-43.24,69.82-88.6,113.86l-2.67,2.6C116.09,218.22,112.93,219.78,109.76,219.78Z"/><circle class="cls-1" cx="214.1" cy="66.51" r="16.49"/><path class="cls-1" d="M48.77,169.19a14.22,14.22,0,0,1-3-.31,15.73,15.73,0,0,1-9.69-6.82L20.74,141a4.13,4.13,0,1,1,6.68-4.87l15.47,21.22c.08.12.16.23.23.36h0a7.57,7.57,0,0,0,4.44,3.12c2.29.45,5-.45,8.08-2.69l3.63-2.65c3.07-2.23,4.76-4.54,5-6.86a7.55,7.55,0,0,0-1.64-5.22,3.4,3.4,0,0,1-.23-.3L47,121.86A4.14,4.14,0,0,1,53.65,117L69,138.08a15.69,15.69,0,0,1,3.52,11.31c-.5,4.77-3.32,9.06-8.4,12.76l-3.63,2.65C56.5,167.72,52.56,169.19,48.77,169.19Z"/><circle class="cls-1" cx="50.33" cy="119.52" r="9.62"/><circle class="cls-1" cx="23.95" cy="137.35" r="9.62"/></svg>